<?xml version="1.0" encoding="UTF-8"?>
<svg width="48" height="48" viewBox="0 0 48 48" fill="none" xmlns="http://www.w3.org/2000/svg">
  <!-- Background circle -->
  <circle cx="24" cy="24" r="24" fill="#25D366"/>
  <!-- Phone icon -->
  <path fill-rule="evenodd" clip-rule="evenodd" d="M24.7836 37.5C31.8709 37.5 37.6171 31.7538 37.6171 24.6665C37.6171 17.5792 31.8709 11.833 24.7836 11.833C17.6963 11.833 11.9501 17.5792 11.9501 24.6665C11.9501 26.9481 12.5705 29.0899 13.6571 30.9358L11.8336 36.1665L17.2241 34.3772C19.0486 35.4273 21.1543 36.0292 23.3926 36.0292C23.8618 36.0292 24.3253 36.0036 24.7836 35.9535V37.5Z" fill="white"/>
  <!-- Phone handset -->
  <path fill-rule="evenodd" clip-rule="evenodd" d="M31.1171 27.9167C30.8671 27.7917 29.1171 26.9167 28.8671 26.8333C28.6171 26.75 28.4171 26.7083 28.2171 26.9583C28.0171 27.2083 27.3171 28.0417 27.1171 28.2417C26.9171 28.4417 26.7171 28.4583 26.4671 28.3333C26.2171 28.2083 25.0671 27.8333 23.7171 26.625C22.6671 25.6667 21.9671 24.5 21.7671 24.25C21.5671 24 21.7421 23.8167 21.9088 23.6417C22.0588 23.4833 22.2421 23.225 22.4088 23.025C22.5754 22.825 22.6171 22.6667 22.7004 22.4667C22.7838 22.2667 22.7421 22.0667 22.6754 21.9417C22.6088 21.8167 21.9171 20.0667 21.6671 19.5667C21.4171 19.0833 21.1588 19.1667 20.9504 19.1583L20.3171 19.1667C20.1171 19.1667 19.7838 19.2333 19.5338 19.4833C19.2838 19.7333 18.3671 20.6083 18.3671 22.3583C18.3671 24.1083 19.7004 25.8167 19.8671 26.0167C20.0338 26.2167 21.9588 29.1833 24.9004 30.7333C25.6338 31.0417 26.2088 31.2167 26.6588 31.3417C27.4088 31.55 28.0921 31.5167 28.6338 31.45C29.2338 31.375 30.6171 30.5917 30.8671 30C31.1171 29.4083 31.1171 28.9083 31.0504 28.7917C30.9838 28.675 30.7838 28.6083 30.5338 28.4833L31.1171 27.9167Z" fill="white"/>
</svg>